{"accessors":[{"bufferView":0,"byteOffset":0,"componentType":5126,"count":24,"max":[0.062499,1.312479,0.062499],"min":[-0.0625,-0.6875,-0.0625],"normalized":false,"type":"VEC3"},{"bufferView":1,"byteOffset":0,"componentType":5126,"count":24,"max":[1,0.000015,1,1],"min":[-1,0,-1,-1],"normalized":false,"type":"VEC4"},{"bufferView":2,"byteOffset":0,"componentType":5126,"count":24,"max":[1,1,1],"min":[-1,-1,-1],"normalized":false,"type":"VEC3"},{"bufferView":3,"byteOffset":0,"componentType":5126,"count":24,"max":[1,1],"min":[0,0],"normalized":false,"type":"VEC2"},{"bufferView":4,"byteOffset":0,"componentType":5125,"count":36,"max":[23],"min":[0],"normalized":false,"type":"SCALAR"},{"bufferView":5,"byteOffset":0,"componentType":5126,"count":16,"max":[0.124999,1.75,0.124999],"min":[-0.125,1.25,-0.125],"normalized":false,"type":"VEC3"},{"bufferView":6,"byteOffset":0,"componentType":5126,"count":16,"max":[1,0.000067,1,1],"min":[-1,-0.000049,-1,1],"normalized":false,"type":"VEC4"},{"bufferView":7,"byteOffset":0,"componentType":5126,"count":16,"max":[0.970149,0.242533,0.970158],"min":[-0.970143,-1,-0.970145],"normalized":false,"type":"VEC3"},{"bufferView":8,"byteOffset":0,"componentType":5126,"count":16,"max":[1,1],"min":[0,0],"normalized":false,"type":"VEC2"},{"bufferView":9,"byteOffset":0,"componentType":5125,"count":18,"max":[15],"min":[0],"normalized":false,"type":"SCALAR"},{"bufferView":10,"byteOffset":0,"componentType":5126,"count":252,"max":[0.125,0.5,0.124999],"min":[-0.125,-0.625,-0.125],"normalized":false,"type":"VEC3"},{"bufferView":11,"byteOffset":0,"componentType":5126,"count":252,"max":[1,0.000062,1,1],"min":[-1,-0.000073,-1,-1],"normalized":false,"type":"VEC4"},{"bufferView":12,"byteOffset":0,"componentType":5126,"count":252,"max":[1,1,1],"min":[-1,-1,-1],"normalized":false,"type":"VEC3"},{"bufferView":13,"byteOffset":0,"componentType":5126,"count":252,"max":[0.267948,0.499992],"min":[0,0],"normalized":false,"type":"VEC2"},{"bufferView":14,"byteOffset":0,"componentType":5125,"count":288,"max":[251],"min":[0],"normalized":false,"type":"SCALAR"},{"bufferView":15,"byteOffset":0,"componentType":5126,"count":14159,"max":[3.175426,7.249899,2.75],"min":[-3.175426,0,-2.75],"normalized":false,"type":"VEC3"},{"bufferView":16,"byteOffset":0,"componentType":5126,"count":14159,"max":[1,0.96933,1,1],"min":[-1,-0.850558,-1,-1],"normalized":false,"type":"VEC4"},{"bufferView":17,"byteOffset":0,"componentType":5126,"count":14159,"max":[0.999537,1,1],"min":[-1,-1,-1],"normalized":false,"type":"VEC3"},{"bufferView":18,"byteOffset":0,"componentType":5125,"count":14910,"max":[9871],"min":[0],"normalized":false,"type":"SCALAR"}],"asset":{"generator":"Godot Engine v4.2.1.stable.official@b09f793f564a6c95dc76acc654b390e68441bd01","version":"2.0"},"bufferViews":[{"buffer":0,"byteLength":288,"byteOffset":0},{"buffer":0,"byteLength":384,"byteOffset":288},{"buffer":0,"byteLength":288,"byteOffset":672},{"buffer":0,"byteLength":192,"byteOffset":960},{"buffer":0,"byteLength":144,"byteOffset":1152},{"buffer":0,"byteLength":192,"byteOffset":1296},{"buffer":0,"byteLength":256,"byteOffset":1488},{"buffer":0,"byteLength":192,"byteOffset":1744},{"buffer":0,"byteLength":128,"byteOffset":1936},{"buffer":0,"byteLength":72,"byteOffset":2064},{"buffer":0,"byteLength":3024,"byteOffset":2136},{"buffer":0,"byteLength":4032,"byteOffset":5160},{"buffer":0,"byteLength":3024,"byteOffset":9192},{"buffer":0,"byteLength":2016,"byteOffset":12216},{"buffer":0,"byteLength":1152,"byteOffset":14232},{"buffer":0,"byteLength":169908,"byteOffset":15384},{"buffer":0,"byteLength":226544,"byteOffset":185292},{"buffer":0,"byteLength":169908,"byteOffset":411836},{"buffer":0,"byteLength":59640,"byteOffset":581744}],"buffers":[{"byteLength":641384,"uri":"cheese0.bin"}],"extensionsUsed":["GODOT_single_root"],"materials":[{"alphaCutoff":0.0500000007450581,"alphaMode":"MASK","doubleSided":true,"extensions":{},"name":"Material_0","pbrMetallicRoughness":{"baseColorFactor":[0.99999988079071,0.99999988079071,0.99999988079071,1],"metallicFactor":0,"roughnessFactor":1}},{"extensions":{},"pbrMetallicRoughness":{"baseColorFactor":[0.99999988079071,0.99999988079071,0.99999988079071,1],"metallicFactor":0,"roughnessFactor":1}}],"meshes":[{"extras":{"targetNames":[]},"primitives":[{"attributes":{"NORMAL":2,"POSITION":0,"TANGENT":1,"TEXCOORD_0":3},"indices":4,"material":0,"mode":4}]},{"extras":{"targetNames":[]},"primitives":[{"attributes":{"NORMAL":7,"POSITION":5,"TANGENT":6,"TEXCOORD_0":8},"indices":9,"material":0,"mode":4}]},{"extras":{"targetNames":[]},"primitives":[{"attributes":{"NORMAL":12,"POSITION":10,"TANGENT":11,"TEXCOORD_0":13},"indices":14,"material":0,"mode":4}]},{"extras":{"targetNames":[]},"primitives":[{"attributes":{"NORMAL":17,"POSITION":15,"TANGENT":16},"indices":18,"material":1,"mode":4}]}],"nodes":[{"children":[1,5],"extensions":{},"name":"cheese"},{"children":[2,3,4],"extensions":{},"name":"Node_3"},{"extensions":{},"mesh":0,"name":"cuboid"},{"extensions":{},"mesh":1,"name":"pyramid"},{"extensions":{},"mesh":2,"name":"tube"},{"extensions":{},"mesh":3,"name":"Bolt","rotation":[0,0,0.999991476535797,0.00412506330758333],"scale":[0.0530379042029381,0.0530379042029381,0.0530379079282284],"translation":[-0.00001226179302,-0.34158009290695,0.00242785271257162]}],"scene":0,"scenes":[{"nodes":[0]}]}